<svg width="135" height="135" viewBox="0 0 135 135" fill="none" xmlns="http://www.w3.org/2000/svg">
<rect width="135" height="135" fill="#007AFF"/>
<rect x="5" y="5" width="125" height="125" rx="5" fill="white"/>
<mask id="mask0_656_233" style="mask-type:luminance" maskUnits="userSpaceOnUse" x="12" y="13" width="110" height="110">
<path d="M122 13H12V123H122V13Z" fill="white"/>
</mask>
<g mask="url(#mask0_656_233)">
<path d="M97.6666 94.496C99.0836 94.1733 100.281 92.764 100.342 91.346L102.781 26.7454C102.847 25.2113 101.702 24.2397 100.224 24.5783L61.6212 33.4263C60.4943 33.6846 59.4426 32.7971 59.4597 31.6L59.5056 28.3613C59.5274 26.8218 58.3432 25.8471 56.8601 26.1874L27.3598 33.0371C25.8791 33.3767 24.6897 34.8947 24.7032 36.4245L25.2419 97.5487C25.2519 98.6927 25.0304 104.747 26.6849 108.606C28.3543 112.5 29.8634 111.792 31.0465 111.49L97.6666 94.496Z" fill="#B4B8BD"/>
<g opacity="0.25">
<path d="M95.3854 91.2571L27.2461 108.602" stroke="#EDEEF1" stroke-width="2.3418" stroke-linecap="round" stroke-linejoin="round"/>
</g>
<g opacity="0.4">
<path d="M27.0239 104.366C26.7246 102.154 26.6621 99.5605 26.6443 97.5363L26.1055 36.4124" stroke="#EDEEF1" stroke-width="1.40508" stroke-linecap="round" stroke-linejoin="round"/>
</g>
<path d="M61.9414 34.7962L100.545 25.948" stroke="#EDEEF1" stroke-width="1.40508" stroke-linecap="round" stroke-linejoin="round"/>
<g opacity="0.899724">
<g opacity="0.1">
<path d="M99.6917 94.3011L102.129 33.8699C102.2 32.246 100.951 31.2179 99.3385 31.5763L30.1003 47.0903C29.6993 47.1795 29.3183 47.3456 28.972 47.5696C27.9039 48.2606 27.3053 49.4604 27.3166 50.7057L27.7556 99.0346C27.7671 100.298 27.4868 107.566 29.8553 111.221C30.1506 111.259 30.459 111.247 30.7698 111.171L99.6917 94.3011Z" fill="#657582"/>
</g>
<g opacity="0.2">
<path d="M99.3753 94.35L101.781 34.7018C101.852 33.099 100.619 32.0838 99.0269 32.4377L30.6853 47.7506C30.2895 47.8388 29.9134 48.0028 29.5715 48.2238C28.5173 48.9057 27.9264 50.0903 27.9377 51.3195L28.3711 99.0223C28.3824 100.27 28.1056 107.443 30.4434 111.051C30.7349 111.089 31.0394 111.077 31.3461 111.001L99.3753 94.35Z" fill="#657582"/>
</g>
<g opacity="0.3">
<path d="M99.0668 94.399L101.441 35.5334C101.51 33.9514 100.294 32.9499 98.7228 33.2991L31.2781 48.4112C30.8875 48.4982 30.5163 48.6597 30.1791 48.878C29.1387 49.551 28.5556 50.72 28.5666 51.933L28.9944 99.01C29.0056 100.241 28.7324 107.32 31.0395 110.881C31.3271 110.918 31.6275 110.907 31.9303 110.832L99.0668 94.399Z" fill="#657582"/>
</g>
<g opacity="0.4">
<path d="M98.7466 94.4482L101.089 36.3652C101.158 34.8045 99.9571 33.8161 98.4073 34.1607L31.8592 49.0718C31.4738 49.1577 31.1075 49.3171 30.7748 49.5325C29.7481 50.1967 29.173 51.3497 29.1837 52.5466L29.6057 98.9978C29.6167 100.213 29.3472 107.198 31.6237 110.711C31.9075 110.747 32.204 110.736 32.5028 110.662L98.7466 94.4482Z" fill="#657582"/>
</g>
<g opacity="0.5">
<path d="M98.4342 94.4972L100.745 37.197C100.813 35.6572 99.6282 34.6822 98.0993 35.0223L32.4482 49.7323C32.0681 49.8168 31.7068 49.9745 31.3785 50.1869C30.3656 50.842 29.798 51.9798 29.8087 53.1605L30.2251 98.9855C30.2359 100.184 29.9701 107.075 32.2159 110.54C32.496 110.577 32.7882 110.566 33.083 110.493L98.4342 94.4972Z" fill="#657582"/>
</g>
<g opacity="0.6">
<path d="M98.1178 94.5463L100.397 38.0287C100.464 36.51 99.2958 35.5484 97.7876 35.8837L33.0332 50.393C32.6583 50.4763 32.3019 50.6317 31.978 50.8412C30.979 51.4874 30.4193 52.6095 30.4298 53.7742L30.8406 98.9733C30.8514 100.155 30.5891 106.952 32.8042 110.37C33.0803 110.406 33.3688 110.395 33.6594 110.324L98.1178 94.5463Z" fill="#657582"/>
</g>
<g opacity="0.7">
<path d="M97.8054 94.5953L100.053 38.8605C100.119 37.3626 98.9669 36.4143 97.4797 36.745L33.6221 51.0532C33.2524 51.1355 32.9011 51.2888 32.5817 51.4953C31.5965 52.1324 31.0443 53.2394 31.0548 54.3879L31.4597 98.961C31.4703 100.127 31.2117 106.829 33.3962 110.2C33.6685 110.235 33.953 110.225 34.2397 110.154L97.8054 94.5953Z" fill="#657582"/>
</g>
<g opacity="0.8">
<path d="M97.493 94.6444L99.7093 39.6923C99.7744 38.2156 98.6384 37.2806 97.1719 37.6066L34.2111 51.714C33.8465 51.7951 33.5001 51.9462 33.1851 52.1499C32.2138 52.7782 31.6695 53.8693 31.6798 55.0016L32.0791 98.9489C32.0896 100.098 31.8346 106.706 33.9884 110.03C34.257 110.065 34.5373 110.055 34.8199 109.985L97.493 94.6444Z" fill="#657582"/>
</g>
</g>
<path d="M26.1055 36.4126C26.0978 35.5372 26.8291 34.5998 27.671 34.4069L57.1753 27.5564" stroke="#EDEEF1" stroke-width="1.40508" stroke-linecap="round" stroke-linejoin="round"/>
<path d="M97.6666 94.496C99.0836 94.1733 100.281 92.764 100.342 91.346L102.781 26.7454C102.847 25.2113 101.702 24.2397 100.224 24.5783L61.6212 33.4263C60.4943 33.6846 59.4426 32.7971 59.4597 31.6L59.5056 28.3613C59.5274 26.8218 58.3432 25.8471 56.8601 26.1874L27.3598 33.0371C25.8791 33.3767 24.6897 34.8947 24.7032 36.4245L25.2419 97.5487C25.2519 98.6927 25.0304 104.747 26.6849 108.606C28.3543 112.5 29.8634 111.792 31.0465 111.49L97.6666 94.496Z" stroke="#657582" stroke-width="1.40508" stroke-linecap="round" stroke-linejoin="round"/>
<mask id="mask1_656_233" style="mask-type:luminance" maskUnits="userSpaceOnUse" x="9" y="0" width="120" height="121">
<path d="M9.07422 0.700806H128.974V120.601H9.07422V0.700806Z" fill="white"/>
</mask>
<g mask="url(#mask1_656_233)">
<g opacity="0.4">
<path d="M63.1556 36.2789L63.1564 35.184L65.1328 34.7386L65.132 35.8335L63.1556 36.2789Z" fill="#677683"/>
<path d="M63.1556 36.2789L63.1564 35.184L65.1328 34.7386L65.132 35.8335L63.1556 36.2789Z" stroke="#677683" stroke-width="0.130682" stroke-linecap="round" stroke-linejoin="round"/>
<path d="M51.0922 59.5436L51.1051 41.2068L84.207 33.747L84.1941 52.0838L51.0922 59.5436Z" fill="#677683"/>
<path d="M51.0922 59.5436L51.1051 41.2068L84.207 33.747L84.1941 52.0838L51.0922 59.5436Z" stroke="#677683" stroke-width="1.55394" stroke-linecap="round" stroke-linejoin="round"/>
</g>
</g>
<g opacity="0.4">
<path d="M63.2354 28.6085L63.2362 27.302L65.137 26.8747L65.1362 28.1813L63.2354 28.6085Z" fill="#BDB69C"/>
<path d="M63.2354 28.6085L63.2362 27.302L65.137 26.8747L65.1362 28.1813L63.2354 28.6085Z" stroke="#BDB69C" stroke-width="0.130682" stroke-linecap="round" stroke-linejoin="round"/>
</g>
<path d="M64.3236 29.4949L64.3244 28.0976L66.3008 27.6522L66.3 29.0495L64.3236 29.4949Z" fill="url(#paint0_linear_656_233)"/>
<path d="M64.3236 29.4949L64.3244 28.0976L66.3008 27.6522L66.3 29.0495L64.3236 29.4949Z" stroke="#99AFCC" stroke-width="0.130682" stroke-linecap="round" stroke-linejoin="round"/>
<path d="M64.3938 29.4474L64.3945 28.1626" stroke="#EBEEF5" stroke-width="0.130682" stroke-linecap="round" stroke-linejoin="round"/>
<path d="M64.4003 28.1597L66.2188 27.7444" stroke="white" stroke-width="0.130682" stroke-linecap="round" stroke-linejoin="round"/>
<path d="M65.9224 28.4325C65.966 28.4253 66.0016 28.4649 66.0019 28.5208C66.0021 28.5767 65.9669 28.6278 65.9232 28.6349C65.8796 28.642 65.844 28.6025 65.8438 28.5466C65.8435 28.4907 65.8787 28.4396 65.9224 28.4325Z" fill="#EDF0F8"/>
<g opacity="0.4">
<path d="M52.2219 56.3124L52.2349 34.2218L84.5616 26.9688L84.5487 49.0593L52.2219 56.3124Z" fill="#BDB69C"/>
<path d="M52.2219 56.3124L52.2349 34.2218L84.5616 26.9688L84.5487 49.0593L52.2219 56.3124Z" stroke="#BDB69C" stroke-width="1.55394" stroke-linecap="round" stroke-linejoin="round"/>
</g>
<path d="M52.2719 57.5229L52.2848 34.1201L85.3867 26.6603L85.3793 39.9056L79.3316 51.4248L52.2719 57.5229Z" fill="url(#paint1_linear_656_233)"/>
<path d="M52.2719 57.5229L52.2848 34.1201L85.3867 26.6603L85.3793 39.9056L79.3316 51.4248L52.2719 57.5229Z" stroke="#BDB69C" stroke-width="1.55394" stroke-linecap="round" stroke-linejoin="round"/>
<path d="M53.4444 56.7289L53.457 35.21" stroke="#F5F4EB" stroke-width="1.55394" stroke-linecap="round" stroke-linejoin="round"/>
<path d="M53.4543 35.1595L83.9102 28.2039" stroke="white" stroke-width="1.55394" stroke-linecap="round" stroke-linejoin="round"/>
<path d="M109.962 38.3296C110.107 36.4922 108.893 35.9613 107.818 36.226L39.2646 51.3144C36.9443 51.8252 34.4723 53.5867 33.9276 55.4894C32.9244 58.9372 32.9158 73.6648 32.8741 85.3729C32.7634 102.955 33.0118 110.836 30.3359 111.678L102.649 93.3097C104.458 92.85 105.815 91.309 105.965 89.4486C107.265 73.3351 109.166 48.2057 109.962 38.3296Z" fill="url(#paint2_linear_656_233)"/>
<g opacity="0.2">
<path d="M32.1803 108.686C31.8738 110.324 31.3478 111.314 30.3359 111.678L102.649 93.3098C104.301 92.8899 105.545 91.5645 105.889 89.9231L106.057 88.5286L32.3895 107.184L32.1803 108.686Z" fill="#657582"/>
</g>
<path d="M34.0039 104.158C34.0315 103.598 34.0575 103.011 34.0849 102.396C34.2678 98.2823 33.937 91.8757 34.0939 85.5818C34.3054 76.7402 33.833 60.3122 35.1877 56.1083C35.7814 54.2514 37.6424 53.1101 39.5655 52.6867L108.119 37.598" stroke="#E5E5E6" stroke-width="1.40508" stroke-linecap="round" stroke-linejoin="round"/>
<g opacity="0.5">
<path d="M105.349 91.1731L31.9805 109.81" stroke="#EDEEF1" stroke-width="1.40508" stroke-linecap="round" stroke-linejoin="round"/>
</g>
<path d="M39.4805 52.7149C39.5468 52.6817 72.1785 45.5074 72.1785 45.5074L108.118 37.598" stroke="white" stroke-width="1.40508" stroke-linecap="round" stroke-linejoin="round"/>
<path d="M109.798 38.4448C109.943 36.6073 108.729 36.0764 107.654 36.3411L39.1005 51.4295C36.7802 51.9403 34.308 53.7019 33.7633 55.6045C32.7601 59.0523 32.7515 73.7799 32.7098 85.488C32.5991 103.07 32.8477 110.952 30.1719 111.793L102.485 93.4248C104.294 92.9651 105.651 91.4238 105.801 89.5635C107.1 73.45 109.002 48.3208 109.798 38.4448Z" stroke="#657582" stroke-width="1.40508" stroke-linecap="round" stroke-linejoin="round"/>
</g>
<defs>
<linearGradient id="paint0_linear_656_233" x1="65.4252" y1="29.1379" x2="65.4081" y2="27.9976" gradientUnits="userSpaceOnUse">
<stop stop-color="#C9D2E0"/>
<stop offset="0.5" stop-color="#DEE4EC"/>
<stop offset="1" stop-color="#F3F6F9"/>
</linearGradient>
<linearGradient id="paint1_linear_656_233" x1="70.7228" y1="51.5421" x2="70.4361" y2="32.445" gradientUnits="userSpaceOnUse">
<stop stop-color="#E0DDC9"/>
<stop offset="0.5" stop-color="#EDEBDE"/>
<stop offset="1" stop-color="#F9F9F3"/>
</linearGradient>
<linearGradient id="paint2_linear_656_233" x1="72.3108" y1="73.0974" x2="79.1814" y2="99.0909" gradientUnits="userSpaceOnUse">
<stop stop-color="#CECED1"/>
<stop offset="0.5" stop-color="#DEDEE1"/>
<stop offset="1" stop-color="#EDEEF1"/>
</linearGradient>
</defs>
</svg>
