<svg width="50" height="50" viewBox="0 0 50 50" fill="none" xmlns="http://www.w3.org/2000/svg">
<path fill-rule="evenodd" clip-rule="evenodd" d="M25 0C11.1929 0 0 11.1929 0 25C0 38.8071 11.1929 50 25 50C38.8071 50 50 38.8071 50 25C50 11.1929 38.8071 0 25 0ZM41.7071 24.2929L35.3431 17.9289C34.9526 17.5384 34.3195 17.5384 33.9289 17.9289C33.5384 18.3195 33.5384 18.9526 33.9289 19.3431L38.5858 24L9 24V26L38.5858 26L33.9289 30.6569C33.5384 31.0474 33.5384 31.6805 33.9289 32.0711C34.3195 32.4616 34.9526 32.4616 35.3431 32.0711L41.7071 25.7071C42.0976 25.3166 42.0976 24.6834 41.7071 24.2929Z" fill="white"/>
</svg>
