<svg width="27" height="18" viewBox="0 0 27 18" fill="none" xmlns="http://www.w3.org/2000/svg">
<path opacity="0.699999988" d="M2.435 0.214337C1.3988 0.340933 0.498726 1.04792 0.157389 2.0081C0.0131336 2.41516 0.0253242 1.81334 0.0151654 8.97672C0.0111018 13.3978 0.0151654 15.4915 0.0293877 15.6181C0.0822137 16.0797 0.265073 16.5296 0.551552 16.9036C0.685649 17.0808 0.966033 17.3496 1.14076 17.4684C1.43334 17.669 1.81938 17.8384 2.179 17.9202C2.3517 17.9592 2.41672 17.9611 6.77283 17.9767C9.20282 17.9865 13.9897 17.9923 17.4091 17.9884L23.6263 17.9826L23.799 17.9417C24.0774 17.8754 24.2196 17.8248 24.4797 17.7021C25.3107 17.3087 25.8694 16.5452 25.9913 15.6396C26.0076 15.5247 26.0137 13.5381 26.0137 8.92998C26.0116 3.52725 26.0076 2.36452 25.9852 2.27688C25.8999 1.93994 25.7638 1.64 25.5748 1.36733C25.4306 1.15894 25.1624 0.888217 24.9389 0.726564C24.7601 0.596072 24.3293 0.381833 24.1282 0.321457C24.0672 0.30198 23.9352 0.268871 23.8336 0.245499L23.6467 0.202651L13.1119 0.200704C7.09588 0.198756 2.51627 0.204599 2.435 0.214337ZM18.3742 6.37858C14.9649 9.64671 13.3537 11.1795 13.2846 11.2184C13.1445 11.2963 12.9799 11.2983 12.8437 11.2204C12.7848 11.1873 10.9176 9.41299 7.75011 6.38053L2.74993 1.59521H13.0551H23.3622L18.3742 6.37858ZM24.6118 8.96114L24.6016 15.6279L24.5569 15.7778C24.4391 16.1752 24.246 16.3972 23.8945 16.5394L23.7483 16.5978L20.2394 13.2206L16.7305 9.84342L20.6661 6.06891C22.8299 3.99469 24.6057 2.29635 24.6118 2.29635C24.6178 2.29635 24.6178 5.2957 24.6118 8.96114ZM5.45218 6.06502L9.3227 9.77525L5.7732 13.1778L2.2237 16.5803L2.09773 16.5238C1.84782 16.4089 1.67512 16.1868 1.59791 15.8811C1.5654 15.7545 1.56134 15.2948 1.55728 9.04878C1.55321 5.36776 1.55728 2.35478 1.5654 2.35478C1.57556 2.35478 3.32288 4.0239 5.45218 6.06502ZM11.5576 11.9079C12.474 12.7941 12.8173 13.1135 12.8763 13.1369C12.9778 13.1758 13.1465 13.1758 13.246 13.1349C13.3029 13.1135 13.6666 12.7765 14.5342 11.9469L15.7431 10.788L18.7968 13.7153C20.4751 15.324 21.8485 16.6445 21.8485 16.6504C21.8485 16.6562 17.8582 16.6601 12.9799 16.6601C8.1016 16.6601 4.11121 16.6562 4.11121 16.6504C4.11121 16.6387 10.2939 10.7101 10.3081 10.7101C10.3142 10.7101 10.877 11.2477 11.5576 11.9079Z" fill="#ffffff"/>
</svg>
