<?xml version="1.0" encoding="UTF-8"?>
<svg width="24px" height="24px" viewBox="0 0 24 24" version="1.1" xmlns="http://www.w3.org/2000/svg" xmlns:xlink="http://www.w3.org/1999/xlink">
    <!-- Generator: Sketch 58 (84663) - https://sketch.com -->
    <title>lk_ic</title>
    <desc>Created with Sketch.</desc>
    <g id="lk_ic" stroke="none" stroke-width="1" fill="none" fill-rule="evenodd" opacity="0.699999988">
        <g id="round-person_outline-24px-(1)-copy">
            <polygon id="Path" points="0 0 24 0 24 24 0 24"></polygon>
            <path d="M14.5,8 C14.5,9.38095238 13.3809524,10.5 12,10.5 C10.6190476,10.5 9.5,9.38095238 9.5,8 C9.5,6.61904762 10.6190476,5.5 12,5.5 C13.3809524,5.5 14.5,6.61904762 14.5,8 Z M18.6,17.125 L18.6,18.5 L5.6,18.5 L5.6,17.125 C5.6,16.325 8.9352459,14.5 12.1,14.5 C15.2647541,14.5 18.6,16.325 18.6,17.125 Z M12,4 C9.79,4 8,5.79 8,8 C8,10.21 9.79,12 12,12 C14.21,12 16,10.21 16,8 C16,5.79 14.21,4 12,4 Z M12.1,13 C9.43,13 4.1,14.34 4.1,17 L4.1,19 C4.1,19.55 4.55,20 5.1,20 L19.1,20 C19.65,20 20.1,19.55 20.1,19 L20.1,17 C20.1,14.34 14.77,13 12.1,13 Z" id="Shape" fill="#FFFFFF" fill-rule="nonzero"></path>
        </g>
    </g>
</svg>