<svg width="918" height="608" viewBox="0 0 918 608" fill="none" xmlns="http://www.w3.org/2000/svg">
<path d="M29.1193 412.426V376.205L188.92 123.364H215.199V179.472H197.443L76.7045 370.523V373.364H291.903V412.426H29.1193ZM200.284 487V401.418V384.55V123.364H242.188V487H200.284ZM625.545 412.426V376.205L785.346 123.364H811.625V179.472H793.869L673.13 370.523V373.364H888.329V412.426H625.545ZM796.71 487V401.418V384.55V123.364H838.613V487H796.71Z" fill="white"/>
<g opacity="0.3">
<path d="M452.622 585.199L435.522 516.784L431.205 515.629C393.844 505.627 359.826 486.049 332.816 459.024L329.654 455.862L262.09 475.181L226.765 414.001L277.457 364.981L276.302 360.665C271.21 341.619 268.626 322.543 268.626 303.999C268.626 285.455 271.21 266.379 276.287 247.318L277.442 243.001L226.75 193.981L262.075 132.801L329.639 152.121L332.8 148.959C359.826 121.918 393.844 102.356 431.19 92.3543L435.507 91.1991L452.622 22.7991H523.256L540.356 91.2143L544.673 92.3695C582.02 102.356 616.037 121.933 643.063 148.974L646.224 152.136L713.788 132.817L749.113 193.997L698.421 243.017L699.576 247.333C704.668 266.379 707.252 285.44 707.252 303.999C707.252 322.543 704.668 341.619 699.592 360.68L698.436 364.997L749.128 414.001L713.804 475.197L646.24 455.862L643.078 459.024C616.068 486.065 582.035 505.627 544.688 515.629L540.372 516.784L523.272 585.199H452.622ZM487.947 182.946C421.188 182.946 366.894 237.256 366.894 303.999C366.894 370.742 421.204 425.052 487.947 425.052C554.69 425.052 609 370.742 609 303.999C609 237.256 554.705 182.946 487.947 182.946Z" fill="white"/>
<path d="M517.374 30.4009L531.951 88.7233L534.124 97.4025L542.773 99.7129C578.828 109.365 611.66 128.259 637.743 154.342L644.066 160.68L652.669 158.218L710.232 141.756L739.628 192.661L696.415 234.446L689.985 240.663L692.296 249.296C697.22 267.703 699.713 286.111 699.713 304.001C699.713 321.891 697.22 340.299 692.296 358.706L689.985 367.339L696.415 373.556L739.628 415.341L710.232 466.246L652.669 449.784L644.066 447.322L637.743 453.66C611.675 479.743 578.828 498.637 542.773 508.289L534.124 510.599L531.951 519.279L517.389 577.601H458.611L444.034 519.279L441.86 510.599L433.212 508.289C397.157 498.637 364.31 479.743 338.242 453.66L331.919 447.322L323.316 449.784L265.753 466.246L236.356 415.341L279.57 373.556L286 367.339L283.689 358.706C278.764 340.299 276.272 321.891 276.272 304.001C276.272 286.111 278.764 267.703 283.689 249.296L286 240.663L279.57 234.446L236.356 192.661L265.753 141.756L323.316 158.218L331.919 160.68L338.242 154.342C364.31 128.259 397.157 109.365 433.212 99.7129L441.86 97.4025L444.034 88.7233L458.596 30.4009H517.374ZM487.992 432.654C558.931 432.654 616.645 374.939 616.645 304.001C616.645 233.063 558.931 175.348 487.992 175.348C417.054 175.348 359.34 233.063 359.34 304.001C359.34 374.939 417.054 432.654 487.992 432.654ZM529.245 15.2009H446.724L429.26 85.0297C390.211 95.4873 355.22 115.84 327.48 143.595L258.518 123.866L217.265 195.321L269.021 245.359C264.005 264.101 261.072 283.694 261.072 304.001C261.072 324.308 263.99 343.901 269.006 362.627L217.25 412.666L258.503 484.121L327.48 464.391C355.22 492.147 390.226 512.499 429.275 522.957L446.74 592.801H529.26L546.71 522.972C585.759 512.514 620.764 492.162 648.504 464.407L717.482 484.136L758.735 412.681L706.979 362.643C711.98 343.916 714.913 324.323 714.913 304.016C714.913 283.709 711.995 264.116 706.979 245.39L758.735 195.351L717.482 123.896L648.504 143.626C620.764 115.871 585.774 95.5177 546.725 85.0601L529.245 15.2009ZM487.992 417.454C425.338 417.454 374.54 366.655 374.54 304.001C374.54 241.347 425.338 190.548 487.992 190.548C550.647 190.548 601.445 241.347 601.445 304.001C601.445 366.655 550.647 417.454 487.992 417.454Z" fill="#0160C7"/>
<path d="M488.03 463.597C400.022 463.597 328.43 392.005 328.43 303.997C328.43 215.989 400.022 144.397 488.03 144.397C576.038 144.397 647.63 215.989 647.63 303.997C647.63 392.005 576.038 463.597 488.03 463.597ZM488.03 235.597C450.319 235.597 419.63 266.286 419.63 303.997C419.63 341.708 450.319 372.397 488.03 372.397C525.741 372.397 556.43 341.708 556.43 303.997C556.43 266.286 525.741 235.597 488.03 235.597Z" fill="#EEEBF7"/>
<path d="M488.059 151.999C571.872 151.999 640.059 220.186 640.059 303.999C640.059 387.812 571.872 455.999 488.059 455.999C404.247 455.999 336.059 387.812 336.059 303.999C336.059 220.186 404.247 151.999 488.059 151.999ZM488.059 379.999C529.966 379.999 564.059 345.905 564.059 303.999C564.059 262.093 529.966 227.999 488.059 227.999C446.153 227.999 412.059 262.093 412.059 303.999C412.059 345.905 446.153 379.999 488.059 379.999ZM488.059 136.799C395.719 136.799 320.859 211.659 320.859 303.999C320.859 396.339 395.719 471.199 488.059 471.199C580.399 471.199 655.259 396.339 655.259 303.999C655.259 211.659 580.399 136.799 488.059 136.799ZM488.059 364.799C454.483 364.799 427.259 337.576 427.259 303.999C427.259 270.422 454.483 243.199 488.059 243.199C521.636 243.199 548.859 270.422 548.859 303.999C548.859 337.576 521.636 364.799 488.059 364.799Z" fill="#0160C7"/>
</g>
</svg>
